<?xml version="1.0" encoding="utf-8" standalone="no"?>
<!DOCTYPE svg PUBLIC "-//W3C//DTD SVG 1.1//EN"
  "http://www.w3.org/Graphics/SVG/1.1/DTD/svg11.dtd">
<svg xmlns:xlink="http://www.w3.org/1999/xlink" width="498.467045pt" height="296.523665pt" viewBox="0 0 498.467045 296.523665" xmlns="http://www.w3.org/2000/svg" version="1.1">
 <defs>
  <style type="text/css">*{stroke-linejoin: round; stroke-linecap: butt}</style>
 </defs>
 <g id="figure_1">
  <g id="patch_1">
   <path d="M 0 296.523665 
L 498.467045 296.523665 
L 498.467045 0 
L 0 0 
z
" style="fill: #ffffff"/>
  </g>
  <g id="axes_1">
   <g id="patch_2">
    <path d="M 38.6525 260.832727 
L 491.267045 260.832727 
L 491.267045 7.2 
L 38.6525 7.2 
z
" style="fill: #ffffff"/>
   </g>
   <g id="patch_3">
    <path d="M 173.522491 260.832727 
L 356.397055 260.832727 
L 356.397055 7.2 
L 173.522491 7.2 
z
" clip-path="url(#p52643b55da)" style="fill: #ebebeb; stroke: #ebebeb; stroke-linejoin: miter"/>
   </g>
   <g id="matplotlib.axis_1">
    <g id="xtick_1">
     <g id="line2d_1">
      <defs>
       <path id="m205b33309d" d="M 0 0 
L 0 3.5 
" style="stroke: #000000; stroke-width: 0.8"/>
      </defs>
      <g>
       <use xlink:href="#m205b33309d" x="51.606115" y="260.832727" style="stroke: #000000; stroke-width: 0.8"/>
      </g>
     </g>
     <g id="text_1">
      <!-- 20 -->
      <g transform="translate(45.879865 274.671321) scale(0.09 -0.09)">
       <defs>
        <path id="DejaVuSans-32" d="M 1228 531 
L 3431 531 
L 3431 0 
L 469 0 
L 469 531 
Q 828 903 1448 1529 
Q 2069 2156 2228 2338 
Q 2531 2678 2651 2914 
Q 2772 3150 2772 3378 
Q 2772 3750 2511 3984 
Q 2250 4219 1831 4219 
Q 1534 4219 1204 4116 
Q 875 4013 500 3803 
L 500 4441 
Q 881 4594 1212 4672 
Q 1544 4750 1819 4750 
Q 2544 4750 2975 4387 
Q 3406 4025 3406 3419 
Q 3406 3131 3298 2873 
Q 3191 2616 2906 2266 
Q 2828 2175 2409 1742 
Q 1991 1309 1228 531 
z
" transform="scale(0.015625)"/>
        <path id="DejaVuSans-30" d="M 2034 4250 
Q 1547 4250 1301 3770 
Q 1056 3291 1056 2328 
Q 1056 1369 1301 889 
Q 1547 409 2034 409 
Q 2525 409 2770 889 
Q 3016 1369 3016 2328 
Q 3016 3291 2770 3770 
Q 2525 4250 2034 4250 
z
M 2034 4750 
Q 2819 4750 3233 4129 
Q 3647 3509 3647 2328 
Q 3647 1150 3233 529 
Q 2819 -91 2034 -91 
Q 1250 -91 836 529 
Q 422 1150 422 2328 
Q 422 3509 836 4129 
Q 1250 4750 2034 4750 
z
" transform="scale(0.015625)"/>
       </defs>
       <use xlink:href="#DejaVuSans-32"/>
       <use xlink:href="#DejaVuSans-30" transform="translate(63.623047 0)"/>
      </g>
     </g>
    </g>
    <g id="xtick_2">
     <g id="line2d_2">
      <g>
       <use xlink:href="#m205b33309d" x="112.564303" y="260.832727" style="stroke: #000000; stroke-width: 0.8"/>
      </g>
     </g>
     <g id="text_2">
      <!-- 40 -->
      <g transform="translate(106.838053 274.671321) scale(0.09 -0.09)">
       <defs>
        <path id="DejaVuSans-34" d="M 2419 4116 
L 825 1625 
L 2419 1625 
L 2419 4116 
z
M 2253 4666 
L 3047 4666 
L 3047 1625 
L 3713 1625 
L 3713 1100 
L 3047 1100 
L 3047 0 
L 2419 0 
L 2419 1100 
L 313 1100 
L 313 1709 
L 2253 4666 
z
" transform="scale(0.015625)"/>
       </defs>
       <use xlink:href="#DejaVuSans-34"/>
       <use xlink:href="#DejaVuSans-30" transform="translate(63.623047 0)"/>
      </g>
     </g>
    </g>
    <g id="xtick_3">
     <g id="line2d_3">
      <g>
       <use xlink:href="#m205b33309d" x="173.522491" y="260.832727" style="stroke: #000000; stroke-width: 0.8"/>
      </g>
     </g>
     <g id="text_3">
      <!-- 60 -->
      <g transform="translate(167.796241 274.671321) scale(0.09 -0.09)">
       <defs>
        <path id="DejaVuSans-36" d="M 2113 2584 
Q 1688 2584 1439 2293 
Q 1191 2003 1191 1497 
Q 1191 994 1439 701 
Q 1688 409 2113 409 
Q 2538 409 2786 701 
Q 3034 994 3034 1497 
Q 3034 2003 2786 2293 
Q 2538 2584 2113 2584 
z
M 3366 4563 
L 3366 3988 
Q 3128 4100 2886 4159 
Q 2644 4219 2406 4219 
Q 1781 4219 1451 3797 
Q 1122 3375 1075 2522 
Q 1259 2794 1537 2939 
Q 1816 3084 2150 3084 
Q 2853 3084 3261 2657 
Q 3669 2231 3669 1497 
Q 3669 778 3244 343 
Q 2819 -91 2113 -91 
Q 1303 -91 875 529 
Q 447 1150 447 2328 
Q 447 3434 972 4092 
Q 1497 4750 2381 4750 
Q 2619 4750 2861 4703 
Q 3103 4656 3366 4563 
z
" transform="scale(0.015625)"/>
       </defs>
       <use xlink:href="#DejaVuSans-36"/>
       <use xlink:href="#DejaVuSans-30" transform="translate(63.623047 0)"/>
      </g>
     </g>
    </g>
    <g id="xtick_4">
     <g id="line2d_4">
      <g>
       <use xlink:href="#m205b33309d" x="234.480679" y="260.832727" style="stroke: #000000; stroke-width: 0.8"/>
      </g>
     </g>
     <g id="text_4">
      <!-- 80 -->
      <g transform="translate(228.754429 274.671321) scale(0.09 -0.09)">
       <defs>
        <path id="DejaVuSans-38" d="M 2034 2216 
Q 1584 2216 1326 1975 
Q 1069 1734 1069 1313 
Q 1069 891 1326 650 
Q 1584 409 2034 409 
Q 2484 409 2743 651 
Q 3003 894 3003 1313 
Q 3003 1734 2745 1975 
Q 2488 2216 2034 2216 
z
M 1403 2484 
Q 997 2584 770 2862 
Q 544 3141 544 3541 
Q 544 4100 942 4425 
Q 1341 4750 2034 4750 
Q 2731 4750 3128 4425 
Q 3525 4100 3525 3541 
Q 3525 3141 3298 2862 
Q 3072 2584 2669 2484 
Q 3125 2378 3379 2068 
Q 3634 1759 3634 1313 
Q 3634 634 3220 271 
Q 2806 -91 2034 -91 
Q 1263 -91 848 271 
Q 434 634 434 1313 
Q 434 1759 690 2068 
Q 947 2378 1403 2484 
z
M 1172 3481 
Q 1172 3119 1398 2916 
Q 1625 2713 2034 2713 
Q 2441 2713 2670 2916 
Q 2900 3119 2900 3481 
Q 2900 3844 2670 4047 
Q 2441 4250 2034 4250 
Q 1625 4250 1398 4047 
Q 1172 3844 1172 3481 
z
" transform="scale(0.015625)"/>
       </defs>
       <use xlink:href="#DejaVuSans-38"/>
       <use xlink:href="#DejaVuSans-30" transform="translate(63.623047 0)"/>
      </g>
     </g>
    </g>
    <g id="xtick_5">
     <g id="line2d_5">
      <g>
       <use xlink:href="#m205b33309d" x="295.438867" y="260.832727" style="stroke: #000000; stroke-width: 0.8"/>
      </g>
     </g>
     <g id="text_5">
      <!-- 100 -->
      <g transform="translate(286.849492 274.671321) scale(0.09 -0.09)">
       <defs>
        <path id="DejaVuSans-31" d="M 794 531 
L 1825 531 
L 1825 4091 
L 703 3866 
L 703 4441 
L 1819 4666 
L 2450 4666 
L 2450 531 
L 3481 531 
L 3481 0 
L 794 0 
L 794 531 
z
" transform="scale(0.015625)"/>
       </defs>
       <use xlink:href="#DejaVuSans-31"/>
       <use xlink:href="#DejaVuSans-30" transform="translate(63.623047 0)"/>
       <use xlink:href="#DejaVuSans-30" transform="translate(127.246094 0)"/>
      </g>
     </g>
    </g>
    <g id="xtick_6">
     <g id="line2d_6">
      <g>
       <use xlink:href="#m205b33309d" x="356.397055" y="260.832727" style="stroke: #000000; stroke-width: 0.8"/>
      </g>
     </g>
     <g id="text_6">
      <!-- 120 -->
      <g transform="translate(347.80768 274.671321) scale(0.09 -0.09)">
       <use xlink:href="#DejaVuSans-31"/>
       <use xlink:href="#DejaVuSans-32" transform="translate(63.623047 0)"/>
       <use xlink:href="#DejaVuSans-30" transform="translate(127.246094 0)"/>
      </g>
     </g>
    </g>
    <g id="xtick_7">
     <g id="line2d_7">
      <g>
       <use xlink:href="#m205b33309d" x="417.355243" y="260.832727" style="stroke: #000000; stroke-width: 0.8"/>
      </g>
     </g>
     <g id="text_7">
      <!-- 140 -->
      <g transform="translate(408.765868 274.671321) scale(0.09 -0.09)">
       <use xlink:href="#DejaVuSans-31"/>
       <use xlink:href="#DejaVuSans-34" transform="translate(63.623047 0)"/>
       <use xlink:href="#DejaVuSans-30" transform="translate(127.246094 0)"/>
      </g>
     </g>
    </g>
    <g id="xtick_8">
     <g id="line2d_8">
      <g>
       <use xlink:href="#m205b33309d" x="478.313431" y="260.832727" style="stroke: #000000; stroke-width: 0.8"/>
      </g>
     </g>
     <g id="text_8">
      <!-- 160 -->
      <g transform="translate(469.724056 274.671321) scale(0.09 -0.09)">
       <use xlink:href="#DejaVuSans-31"/>
       <use xlink:href="#DejaVuSans-36" transform="translate(63.623047 0)"/>
       <use xlink:href="#DejaVuSans-30" transform="translate(127.246094 0)"/>
      </g>
     </g>
    </g>
    <g id="text_9">
     <!-- observed Doppler angle θ (°) -->
     <g transform="translate(199.575476 287.451946) scale(0.09 -0.09)">
      <defs>
       <path id="DejaVuSans-6f" d="M 1959 3097 
Q 1497 3097 1228 2736 
Q 959 2375 959 1747 
Q 959 1119 1226 758 
Q 1494 397 1959 397 
Q 2419 397 2687 759 
Q 2956 1122 2956 1747 
Q 2956 2369 2687 2733 
Q 2419 3097 1959 3097 
z
M 1959 3584 
Q 2709 3584 3137 3096 
Q 3566 2609 3566 1747 
Q 3566 888 3137 398 
Q 2709 -91 1959 -91 
Q 1206 -91 779 398 
Q 353 888 353 1747 
Q 353 2609 779 3096 
Q 1206 3584 1959 3584 
z
" transform="scale(0.015625)"/>
       <path id="DejaVuSans-62" d="M 3116 1747 
Q 3116 2381 2855 2742 
Q 2594 3103 2138 3103 
Q 1681 3103 1420 2742 
Q 1159 2381 1159 1747 
Q 1159 1113 1420 752 
Q 1681 391 2138 391 
Q 2594 391 2855 752 
Q 3116 1113 3116 1747 
z
M 1159 2969 
Q 1341 3281 1617 3432 
Q 1894 3584 2278 3584 
Q 2916 3584 3314 3078 
Q 3713 2572 3713 1747 
Q 3713 922 3314 415 
Q 2916 -91 2278 -91 
Q 1894 -91 1617 61 
Q 1341 213 1159 525 
L 1159 0 
L 581 0 
L 581 4863 
L 1159 4863 
L 1159 2969 
z
" transform="scale(0.015625)"/>
       <path id="DejaVuSans-73" d="M 2834 3397 
L 2834 2853 
Q 2591 2978 2328 3040 
Q 2066 3103 1784 3103 
Q 1356 3103 1142 2972 
Q 928 2841 928 2578 
Q 928 2378 1081 2264 
Q 1234 2150 1697 2047 
L 1894 2003 
Q 2506 1872 2764 1633 
Q 3022 1394 3022 966 
Q 3022 478 2636 193 
Q 2250 -91 1575 -91 
Q 1294 -91 989 -36 
Q 684 19 347 128 
L 347 722 
Q 666 556 975 473 
Q 1284 391 1588 391 
Q 1994 391 2212 530 
Q 2431 669 2431 922 
Q 2431 1156 2273 1281 
Q 2116 1406 1581 1522 
L 1381 1569 
Q 847 1681 609 1914 
Q 372 2147 372 2553 
Q 372 3047 722 3315 
Q 1072 3584 1716 3584 
Q 2034 3584 2315 3537 
Q 2597 3491 2834 3397 
z
" transform="scale(0.015625)"/>
       <path id="DejaVuSans-65" d="M 3597 1894 
L 3597 1613 
L 953 1613 
Q 991 1019 1311 708 
Q 1631 397 2203 397 
Q 2534 397 2845 478 
Q 3156 559 3463 722 
L 3463 178 
Q 3153 47 2828 -22 
Q 2503 -91 2169 -91 
Q 1331 -91 842 396 
Q 353 884 353 1716 
Q 353 2575 817 3079 
Q 1281 3584 2069 3584 
Q 2775 3584 3186 3129 
Q 3597 2675 3597 1894 
z
M 3022 2063 
Q 3016 2534 2758 2815 
Q 2500 3097 2075 3097 
Q 1594 3097 1305 2825 
Q 1016 2553 972 2059 
L 3022 2063 
z
" transform="scale(0.015625)"/>
       <path id="DejaVuSans-72" d="M 2631 2963 
Q 2534 3019 2420 3045 
Q 2306 3072 2169 3072 
Q 1681 3072 1420 2755 
Q 1159 2438 1159 1844 
L 1159 0 
L 581 0 
L 581 3500 
L 1159 3500 
L 1159 2956 
Q 1341 3275 1631 3429 
Q 1922 3584 2338 3584 
Q 2397 3584 2469 3576 
Q 2541 3569 2628 3553 
L 2631 2963 
z
" transform="scale(0.015625)"/>
       <path id="DejaVuSans-76" d="M 191 3500 
L 800 3500 
L 1894 563 
L 2988 3500 
L 3597 3500 
L 2284 0 
L 1503 0 
L 191 3500 
z
" transform="scale(0.015625)"/>
       <path id="DejaVuSans-64" d="M 2906 2969 
L 2906 4863 
L 3481 4863 
L 3481 0 
L 2906 0 
L 2906 525 
Q 2725 213 2448 61 
Q 2172 -91 1784 -91 
Q 1150 -91 751 415 
Q 353 922 353 1747 
Q 353 2572 751 3078 
Q 1150 3584 1784 3584 
Q 2172 3584 2448 3432 
Q 2725 3281 2906 2969 
z
M 947 1747 
Q 947 1113 1208 752 
Q 1469 391 1925 391 
Q 2381 391 2643 752 
Q 2906 1113 2906 1747 
Q 2906 2381 2643 2742 
Q 2381 3103 1925 3103 
Q 1469 3103 1208 2742 
Q 947 2381 947 1747 
z
" transform="scale(0.015625)"/>
       <path id="DejaVuSans-20" transform="scale(0.015625)"/>
       <path id="DejaVuSans-44" d="M 1259 4147 
L 1259 519 
L 2022 519 
Q 2988 519 3436 956 
Q 3884 1394 3884 2338 
Q 3884 3275 3436 3711 
Q 2988 4147 2022 4147 
L 1259 4147 
z
M 628 4666 
L 1925 4666 
Q 3281 4666 3915 4102 
Q 4550 3538 4550 2338 
Q 4550 1131 3912 565 
Q 3275 0 1925 0 
L 628 0 
L 628 4666 
z
" transform="scale(0.015625)"/>
       <path id="DejaVuSans-70" d="M 1159 525 
L 1159 -1331 
L 581 -1331 
L 581 3500 
L 1159 3500 
L 1159 2969 
Q 1341 3281 1617 3432 
Q 1894 3584 2278 3584 
Q 2916 3584 3314 3078 
Q 3713 2572 3713 1747 
Q 3713 922 3314 415 
Q 2916 -91 2278 -91 
Q 1894 -91 1617 61 
Q 1341 213 1159 525 
z
M 3116 1747 
Q 3116 2381 2855 2742 
Q 2594 3103 2138 3103 
Q 1681 3103 1420 2742 
Q 1159 2381 1159 1747 
Q 1159 1113 1420 752 
Q 1681 391 2138 391 
Q 2594 391 2855 752 
Q 3116 1113 3116 1747 
z
" transform="scale(0.015625)"/>
       <path id="DejaVuSans-6c" d="M 603 4863 
L 1178 4863 
L 1178 0 
L 603 0 
L 603 4863 
z
" transform="scale(0.015625)"/>
       <path id="DejaVuSans-61" d="M 2194 1759 
Q 1497 1759 1228 1600 
Q 959 1441 959 1056 
Q 959 750 1161 570 
Q 1363 391 1709 391 
Q 2188 391 2477 730 
Q 2766 1069 2766 1631 
L 2766 1759 
L 2194 1759 
z
M 3341 1997 
L 3341 0 
L 2766 0 
L 2766 531 
Q 2569 213 2275 61 
Q 1981 -91 1556 -91 
Q 1019 -91 701 211 
Q 384 513 384 1019 
Q 384 1609 779 1909 
Q 1175 2209 1959 2209 
L 2766 2209 
L 2766 2266 
Q 2766 2663 2505 2880 
Q 2244 3097 1772 3097 
Q 1472 3097 1187 3025 
Q 903 2953 641 2809 
L 641 3341 
Q 956 3463 1253 3523 
Q 1550 3584 1831 3584 
Q 2591 3584 2966 3190 
Q 3341 2797 3341 1997 
z
" transform="scale(0.015625)"/>
       <path id="DejaVuSans-6e" d="M 3513 2113 
L 3513 0 
L 2938 0 
L 2938 2094 
Q 2938 2591 2744 2837 
Q 2550 3084 2163 3084 
Q 1697 3084 1428 2787 
Q 1159 2491 1159 1978 
L 1159 0 
L 581 0 
L 581 3500 
L 1159 3500 
L 1159 2956 
Q 1366 3272 1645 3428 
Q 1925 3584 2291 3584 
Q 2894 3584 3203 3211 
Q 3513 2838 3513 2113 
z
" transform="scale(0.015625)"/>
       <path id="DejaVuSans-67" d="M 2906 1791 
Q 2906 2416 2648 2759 
Q 2391 3103 1925 3103 
Q 1463 3103 1205 2759 
Q 947 2416 947 1791 
Q 947 1169 1205 825 
Q 1463 481 1925 481 
Q 2391 481 2648 825 
Q 2906 1169 2906 1791 
z
M 3481 434 
Q 3481 -459 3084 -895 
Q 2688 -1331 1869 -1331 
Q 1566 -1331 1297 -1286 
Q 1028 -1241 775 -1147 
L 775 -588 
Q 1028 -725 1275 -790 
Q 1522 -856 1778 -856 
Q 2344 -856 2625 -561 
Q 2906 -266 2906 331 
L 2906 616 
Q 2728 306 2450 153 
Q 2172 0 1784 0 
Q 1141 0 747 490 
Q 353 981 353 1791 
Q 353 2603 747 3093 
Q 1141 3584 1784 3584 
Q 2172 3584 2450 3431 
Q 2728 3278 2906 2969 
L 2906 3500 
L 3481 3500 
L 3481 434 
z
" transform="scale(0.015625)"/>
       <path id="DejaVuSans-3b8" d="M 2953 2219 
L 963 2219 
Q 1009 1284 1225 888 
Q 1494 400 1959 400 
Q 2428 400 2688 891 
Q 2916 1322 2953 2219 
z
M 2944 2750 
Q 2856 3638 2688 3950 
Q 2419 4444 1959 4444 
Q 1481 4444 1228 3956 
Q 1028 3563 969 2750 
L 2944 2750 
z
M 1959 4913 
Q 2709 4913 3138 4250 
Q 3566 3591 3566 2422 
Q 3566 1256 3138 594 
Q 2709 -72 1959 -72 
Q 1206 -72 781 594 
Q 353 1256 353 2422 
Q 353 3591 781 4250 
Q 1206 4913 1959 4913 
z
" transform="scale(0.015625)"/>
       <path id="DejaVuSans-28" d="M 1984 4856 
Q 1566 4138 1362 3434 
Q 1159 2731 1159 2009 
Q 1159 1288 1364 580 
Q 1569 -128 1984 -844 
L 1484 -844 
Q 1016 -109 783 600 
Q 550 1309 550 2009 
Q 550 2706 781 3412 
Q 1013 4119 1484 4856 
L 1984 4856 
z
" transform="scale(0.015625)"/>
       <path id="DejaVuSans-b0" d="M 1600 4347 
Q 1350 4347 1178 4173 
Q 1006 4000 1006 3750 
Q 1006 3503 1178 3333 
Q 1350 3163 1600 3163 
Q 1850 3163 2022 3333 
Q 2194 3503 2194 3750 
Q 2194 3997 2020 4172 
Q 1847 4347 1600 4347 
z
M 1600 4750 
Q 1800 4750 1984 4673 
Q 2169 4597 2303 4453 
Q 2447 4313 2519 4134 
Q 2591 3956 2591 3750 
Q 2591 3338 2302 3052 
Q 2013 2766 1594 2766 
Q 1172 2766 890 3047 
Q 609 3328 609 3750 
Q 609 4169 896 4459 
Q 1184 4750 1600 4750 
z
" transform="scale(0.015625)"/>
       <path id="DejaVuSans-29" d="M 513 4856 
L 1013 4856 
Q 1481 4119 1714 3412 
Q 1947 2706 1947 2009 
Q 1947 1309 1714 600 
Q 1481 -109 1013 -844 
L 513 -844 
Q 928 -128 1133 580 
Q 1338 1288 1338 2009 
Q 1338 2731 1133 3434 
Q 928 4138 513 4856 
z
" transform="scale(0.015625)"/>
      </defs>
      <use xlink:href="#DejaVuSans-6f"/>
      <use xlink:href="#DejaVuSans-62" transform="translate(61.181641 0)"/>
      <use xlink:href="#DejaVuSans-73" transform="translate(124.658203 0)"/>
      <use xlink:href="#DejaVuSans-65" transform="translate(176.757812 0)"/>
      <use xlink:href="#DejaVuSans-72" transform="translate(238.28125 0)"/>
      <use xlink:href="#DejaVuSans-76" transform="translate(279.394531 0)"/>
      <use xlink:href="#DejaVuSans-65" transform="translate(338.574219 0)"/>
      <use xlink:href="#DejaVuSans-64" transform="translate(400.097656 0)"/>
      <use xlink:href="#DejaVuSans-20" transform="translate(463.574219 0)"/>
      <use xlink:href="#DejaVuSans-44" transform="translate(495.361328 0)"/>
      <use xlink:href="#DejaVuSans-6f" transform="translate(572.363281 0)"/>
      <use xlink:href="#DejaVuSans-70" transform="translate(633.544922 0)"/>
      <use xlink:href="#DejaVuSans-70" transform="translate(697.021484 0)"/>
      <use xlink:href="#DejaVuSans-6c" transform="translate(760.498047 0)"/>
      <use xlink:href="#DejaVuSans-65" transform="translate(788.28125 0)"/>
      <use xlink:href="#DejaVuSans-72" transform="translate(849.804688 0)"/>
      <use xlink:href="#DejaVuSans-20" transform="translate(890.917969 0)"/>
      <use xlink:href="#DejaVuSans-61" transform="translate(922.705078 0)"/>
      <use xlink:href="#DejaVuSans-6e" transform="translate(983.984375 0)"/>
      <use xlink:href="#DejaVuSans-67" transform="translate(1047.363281 0)"/>
      <use xlink:href="#DejaVuSans-6c" transform="translate(1110.839844 0)"/>
      <use xlink:href="#DejaVuSans-65" transform="translate(1138.623047 0)"/>
      <use xlink:href="#DejaVuSans-20" transform="translate(1200.146484 0)"/>
      <use xlink:href="#DejaVuSans-3b8" transform="translate(1231.933594 0)"/>
      <use xlink:href="#DejaVuSans-20" transform="translate(1293.115234 0)"/>
      <use xlink:href="#DejaVuSans-28" transform="translate(1324.902344 0)"/>
      <use xlink:href="#DejaVuSans-b0" transform="translate(1363.916016 0)"/>
      <use xlink:href="#DejaVuSans-29" transform="translate(1413.916016 0)"/>
     </g>
    </g>
   </g>
   <g id="matplotlib.axis_2">
    <g id="ytick_1">
     <g id="line2d_9">
      <defs>
       <path id="m5e24df6f5a" d="M 0 0 
L -3.5 0 
" style="stroke: #000000; stroke-width: 0.8"/>
      </defs>
      <g>
       <use xlink:href="#m5e24df6f5a" x="38.6525" y="236.305364" style="stroke: #000000; stroke-width: 0.8"/>
      </g>
     </g>
     <g id="text_10">
      <!-- 5 -->
      <g transform="translate(25.92625 239.724661) scale(0.09 -0.09)">
       <defs>
        <path id="DejaVuSans-35" d="M 691 4666 
L 3169 4666 
L 3169 4134 
L 1269 4134 
L 1269 2991 
Q 1406 3038 1543 3061 
Q 1681 3084 1819 3084 
Q 2600 3084 3056 2656 
Q 3513 2228 3513 1497 
Q 3513 744 3044 326 
Q 2575 -91 1722 -91 
Q 1428 -91 1123 -41 
Q 819 9 494 109 
L 494 744 
Q 775 591 1075 516 
Q 1375 441 1709 441 
Q 2250 441 2565 725 
Q 2881 1009 2881 1497 
Q 2881 1984 2565 2268 
Q 2250 2553 1709 2553 
Q 1456 2553 1204 2497 
Q 953 2441 691 2322 
L 691 4666 
z
" transform="scale(0.015625)"/>
       </defs>
       <use xlink:href="#DejaVuSans-35"/>
      </g>
     </g>
    </g>
    <g id="ytick_2">
     <g id="line2d_10">
      <g>
       <use xlink:href="#m5e24df6f5a" x="38.6525" y="201.777043" style="stroke: #000000; stroke-width: 0.8"/>
      </g>
     </g>
     <g id="text_11">
      <!-- 10 -->
      <g transform="translate(20.2 205.19634) scale(0.09 -0.09)">
       <use xlink:href="#DejaVuSans-31"/>
       <use xlink:href="#DejaVuSans-30" transform="translate(63.623047 0)"/>
      </g>
     </g>
    </g>
    <g id="ytick_3">
     <g id="line2d_11">
      <g>
       <use xlink:href="#m5e24df6f5a" x="38.6525" y="167.248722" style="stroke: #000000; stroke-width: 0.8"/>
      </g>
     </g>
     <g id="text_12">
      <!-- 15 -->
      <g transform="translate(20.2 170.668019) scale(0.09 -0.09)">
       <use xlink:href="#DejaVuSans-31"/>
       <use xlink:href="#DejaVuSans-35" transform="translate(63.623047 0)"/>
      </g>
     </g>
    </g>
    <g id="ytick_4">
     <g id="line2d_12">
      <g>
       <use xlink:href="#m5e24df6f5a" x="38.6525" y="132.720401" style="stroke: #000000; stroke-width: 0.8"/>
      </g>
     </g>
     <g id="text_13">
      <!-- 20 -->
      <g transform="translate(20.2 136.139698) scale(0.09 -0.09)">
       <use xlink:href="#DejaVuSans-32"/>
       <use xlink:href="#DejaVuSans-30" transform="translate(63.623047 0)"/>
      </g>
     </g>
    </g>
    <g id="ytick_5">
     <g id="line2d_13">
      <g>
       <use xlink:href="#m5e24df6f5a" x="38.6525" y="98.19208" style="stroke: #000000; stroke-width: 0.8"/>
      </g>
     </g>
     <g id="text_14">
      <!-- 25 -->
      <g transform="translate(20.2 101.611377) scale(0.09 -0.09)">
       <use xlink:href="#DejaVuSans-32"/>
       <use xlink:href="#DejaVuSans-35" transform="translate(63.623047 0)"/>
      </g>
     </g>
    </g>
    <g id="ytick_6">
     <g id="line2d_14">
      <g>
       <use xlink:href="#m5e24df6f5a" x="38.6525" y="63.663759" style="stroke: #000000; stroke-width: 0.8"/>
      </g>
     </g>
     <g id="text_15">
      <!-- 30 -->
      <g transform="translate(20.2 67.083056) scale(0.09 -0.09)">
       <defs>
        <path id="DejaVuSans-33" d="M 2597 2516 
Q 3050 2419 3304 2112 
Q 3559 1806 3559 1356 
Q 3559 666 3084 287 
Q 2609 -91 1734 -91 
Q 1441 -91 1130 -33 
Q 819 25 488 141 
L 488 750 
Q 750 597 1062 519 
Q 1375 441 1716 441 
Q 2309 441 2620 675 
Q 2931 909 2931 1356 
Q 2931 1769 2642 2001 
Q 2353 2234 1838 2234 
L 1294 2234 
L 1294 2753 
L 1863 2753 
Q 2328 2753 2575 2939 
Q 2822 3125 2822 3475 
Q 2822 3834 2567 4026 
Q 2313 4219 1838 4219 
Q 1578 4219 1281 4162 
Q 984 4106 628 3988 
L 628 4550 
Q 988 4650 1302 4700 
Q 1616 4750 1894 4750 
Q 2613 4750 3031 4423 
Q 3450 4097 3450 3541 
Q 3450 3153 3228 2886 
Q 3006 2619 2597 2516 
z
" transform="scale(0.015625)"/>
       </defs>
       <use xlink:href="#DejaVuSans-33"/>
       <use xlink:href="#DejaVuSans-30" transform="translate(63.623047 0)"/>
      </g>
     </g>
    </g>
    <g id="ytick_7">
     <g id="line2d_15">
      <g>
       <use xlink:href="#m5e24df6f5a" x="38.6525" y="29.135438" style="stroke: #000000; stroke-width: 0.8"/>
      </g>
     </g>
     <g id="text_16">
      <!-- 35 -->
      <g transform="translate(20.2 32.554735) scale(0.09 -0.09)">
       <use xlink:href="#DejaVuSans-33"/>
       <use xlink:href="#DejaVuSans-35" transform="translate(63.623047 0)"/>
      </g>
     </g>
    </g>
    <g id="text_17">
     <!-- mean |error| (°) -->
     <g transform="translate(14.077969 169.323786) rotate(-90) scale(0.09 -0.09)">
      <defs>
       <path id="DejaVuSans-6d" d="M 3328 2828 
Q 3544 3216 3844 3400 
Q 4144 3584 4550 3584 
Q 5097 3584 5394 3201 
Q 5691 2819 5691 2113 
L 5691 0 
L 5113 0 
L 5113 2094 
Q 5113 2597 4934 2840 
Q 4756 3084 4391 3084 
Q 3944 3084 3684 2787 
Q 3425 2491 3425 1978 
L 3425 0 
L 2847 0 
L 2847 2094 
Q 2847 2600 2669 2842 
Q 2491 3084 2119 3084 
Q 1678 3084 1418 2786 
Q 1159 2488 1159 1978 
L 1159 0 
L 581 0 
L 581 3500 
L 1159 3500 
L 1159 2956 
Q 1356 3278 1631 3431 
Q 1906 3584 2284 3584 
Q 2666 3584 2933 3390 
Q 3200 3197 3328 2828 
z
" transform="scale(0.015625)"/>
       <path id="DejaVuSans-7c" d="M 1344 4891 
L 1344 -1509 
L 813 -1509 
L 813 4891 
L 1344 4891 
z
" transform="scale(0.015625)"/>
      </defs>
      <use xlink:href="#DejaVuSans-6d"/>
      <use xlink:href="#DejaVuSans-65" transform="translate(97.412109 0)"/>
      <use xlink:href="#DejaVuSans-61" transform="translate(158.935547 0)"/>
      <use xlink:href="#DejaVuSans-6e" transform="translate(220.214844 0)"/>
      <use xlink:href="#DejaVuSans-20" transform="translate(283.59375 0)"/>
      <use xlink:href="#DejaVuSans-7c" transform="translate(315.380859 0)"/>
      <use xlink:href="#DejaVuSans-65" transform="translate(349.072266 0)"/>
      <use xlink:href="#DejaVuSans-72" transform="translate(410.595703 0)"/>
      <use xlink:href="#DejaVuSans-72" transform="translate(449.958984 0)"/>
      <use xlink:href="#DejaVuSans-6f" transform="translate(488.822266 0)"/>
      <use xlink:href="#DejaVuSans-72" transform="translate(550.003906 0)"/>
      <use xlink:href="#DejaVuSans-7c" transform="translate(591.117188 0)"/>
      <use xlink:href="#DejaVuSans-20" transform="translate(624.808594 0)"/>
      <use xlink:href="#DejaVuSans-28" transform="translate(656.595703 0)"/>
      <use xlink:href="#DejaVuSans-b0" transform="translate(695.609375 0)"/>
      <use xlink:href="#DejaVuSans-29" transform="translate(745.609375 0)"/>
     </g>
    </g>
   </g>
   <g id="line2d_16">
    <path d="M 59.225888 231.684721 
L 104.944529 242.017887 
L 150.66317 242.2821 
L 196.381811 249.16751 
L 242.100452 248.729572 
L 287.819093 249.303967 
L 333.537734 245.516504 
L 379.256375 245.646042 
L 424.975016 242.600592 
L 470.693657 158.931704 
" clip-path="url(#p52643b55da)" style="fill: none; stroke: #1f77b4; stroke-width: 1.2; stroke-linecap: square"/>
    <defs>
     <path id="m35fdba2503" d="M 0 1.5 
C 0.397805 1.5 0.77937 1.341951 1.06066 1.06066 
C 1.341951 0.77937 1.5 0.397805 1.5 0 
C 1.5 -0.397805 1.341951 -0.77937 1.06066 -1.06066 
C 0.77937 -1.341951 0.397805 -1.5 0 -1.5 
C -0.397805 -1.5 -0.77937 -1.341951 -1.06066 -1.06066 
C -1.341951 -0.77937 -1.5 -0.397805 -1.5 0 
C -1.5 0.397805 -1.341951 0.77937 -1.06066 1.06066 
C -0.77937 1.341951 -0.397805 1.5 0 1.5 
z
" style="stroke: #1f77b4"/>
    </defs>
    <g clip-path="url(#p52643b55da)">
     <use xlink:href="#m35fdba2503" x="59.225888" y="231.684721" style="fill: #1f77b4; stroke: #1f77b4"/>
     <use xlink:href="#m35fdba2503" x="104.944529" y="242.017887" style="fill: #1f77b4; stroke: #1f77b4"/>
     <use xlink:href="#m35fdba2503" x="150.66317" y="242.2821" style="fill: #1f77b4; stroke: #1f77b4"/>
     <use xlink:href="#m35fdba2503" x="196.381811" y="249.16751" style="fill: #1f77b4; stroke: #1f77b4"/>
     <use xlink:href="#m35fdba2503" x="242.100452" y="248.729572" style="fill: #1f77b4; stroke: #1f77b4"/>
     <use xlink:href="#m35fdba2503" x="287.819093" y="249.303967" style="fill: #1f77b4; stroke: #1f77b4"/>
     <use xlink:href="#m35fdba2503" x="333.537734" y="245.516504" style="fill: #1f77b4; stroke: #1f77b4"/>
     <use xlink:href="#m35fdba2503" x="379.256375" y="245.646042" style="fill: #1f77b4; stroke: #1f77b4"/>
     <use xlink:href="#m35fdba2503" x="424.975016" y="242.600592" style="fill: #1f77b4; stroke: #1f77b4"/>
     <use xlink:href="#m35fdba2503" x="470.693657" y="158.931704" style="fill: #1f77b4; stroke: #1f77b4"/>
    </g>
   </g>
   <g id="line2d_17">
    <path d="M 59.225888 200.526384 
L 104.944529 214.108844 
L 150.66317 225.673413 
L 196.381811 231.102597 
L 242.100452 200.509261 
L 287.819093 201.952289 
L 333.537734 212.604708 
L 379.256375 205.75667 
L 424.975016 182.064894 
L 470.693657 111.682261 
" clip-path="url(#p52643b55da)" style="fill: none; stroke: #ff7f0e; stroke-width: 1.2; stroke-linecap: square"/>
    <defs>
     <path id="m38089bc768" d="M 0 1.5 
C 0.397805 1.5 0.77937 1.341951 1.06066 1.06066 
C 1.341951 0.77937 1.5 0.397805 1.5 0 
C 1.5 -0.397805 1.341951 -0.77937 1.06066 -1.06066 
C 0.77937 -1.341951 0.397805 -1.5 0 -1.5 
C -0.397805 -1.5 -0.77937 -1.341951 -1.06066 -1.06066 
C -1.341951 -0.77937 -1.5 -0.397805 -1.5 0 
C -1.5 0.397805 -1.341951 0.77937 -1.06066 1.06066 
C -0.77937 1.341951 -0.397805 1.5 0 1.5 
z
" style="stroke: #ff7f0e"/>
    </defs>
    <g clip-path="url(#p52643b55da)">
     <use xlink:href="#m38089bc768" x="59.225888" y="200.526384" style="fill: #ff7f0e; stroke: #ff7f0e"/>
     <use xlink:href="#m38089bc768" x="104.944529" y="214.108844" style="fill: #ff7f0e; stroke: #ff7f0e"/>
     <use xlink:href="#m38089bc768" x="150.66317" y="225.673413" style="fill: #ff7f0e; stroke: #ff7f0e"/>
     <use xlink:href="#m38089bc768" x="196.381811" y="231.102597" style="fill: #ff7f0e; stroke: #ff7f0e"/>
     <use xlink:href="#m38089bc768" x="242.100452" y="200.509261" style="fill: #ff7f0e; stroke: #ff7f0e"/>
     <use xlink:href="#m38089bc768" x="287.819093" y="201.952289" style="fill: #ff7f0e; stroke: #ff7f0e"/>
     <use xlink:href="#m38089bc768" x="333.537734" y="212.604708" style="fill: #ff7f0e; stroke: #ff7f0e"/>
     <use xlink:href="#m38089bc768" x="379.256375" y="205.75667" style="fill: #ff7f0e; stroke: #ff7f0e"/>
     <use xlink:href="#m38089bc768" x="424.975016" y="182.064894" style="fill: #ff7f0e; stroke: #ff7f0e"/>
     <use xlink:href="#m38089bc768" x="470.693657" y="111.682261" style="fill: #ff7f0e; stroke: #ff7f0e"/>
    </g>
   </g>
   <g id="line2d_18">
    <path d="M 59.225888 140.021209 
L 104.944529 197.456026 
L 150.66317 206.645797 
L 196.381811 207.165758 
L 242.100452 157.722348 
L 287.819093 187.474859 
L 333.537734 200.947595 
L 379.256375 202.142684 
L 424.975016 204.977585 
L 470.693657 18.72876 
" clip-path="url(#p52643b55da)" style="fill: none; stroke: #2ca02c; stroke-width: 1.2; stroke-linecap: square"/>
    <defs>
     <path id="m2a5debc972" d="M 0 1.5 
C 0.397805 1.5 0.77937 1.341951 1.06066 1.06066 
C 1.341951 0.77937 1.5 0.397805 1.5 0 
C 1.5 -0.397805 1.341951 -0.77937 1.06066 -1.06066 
C 0.77937 -1.341951 0.397805 -1.5 0 -1.5 
C -0.397805 -1.5 -0.77937 -1.341951 -1.06066 -1.06066 
C -1.341951 -0.77937 -1.5 -0.397805 -1.5 0 
C -1.5 0.397805 -1.341951 0.77937 -1.06066 1.06066 
C -0.77937 1.341951 -0.397805 1.5 0 1.5 
z
" style="stroke: #2ca02c"/>
    </defs>
    <g clip-path="url(#p52643b55da)">
     <use xlink:href="#m2a5debc972" x="59.225888" y="140.021209" style="fill: #2ca02c; stroke: #2ca02c"/>
     <use xlink:href="#m2a5debc972" x="104.944529" y="197.456026" style="fill: #2ca02c; stroke: #2ca02c"/>
     <use xlink:href="#m2a5debc972" x="150.66317" y="206.645797" style="fill: #2ca02c; stroke: #2ca02c"/>
     <use xlink:href="#m2a5debc972" x="196.381811" y="207.165758" style="fill: #2ca02c; stroke: #2ca02c"/>
     <use xlink:href="#m2a5debc972" x="242.100452" y="157.722348" style="fill: #2ca02c; stroke: #2ca02c"/>
     <use xlink:href="#m2a5debc972" x="287.819093" y="187.474859" style="fill: #2ca02c; stroke: #2ca02c"/>
     <use xlink:href="#m2a5debc972" x="333.537734" y="200.947595" style="fill: #2ca02c; stroke: #2ca02c"/>
     <use xlink:href="#m2a5debc972" x="379.256375" y="202.142684" style="fill: #2ca02c; stroke: #2ca02c"/>
     <use xlink:href="#m2a5debc972" x="424.975016" y="204.977585" style="fill: #2ca02c; stroke: #2ca02c"/>
     <use xlink:href="#m2a5debc972" x="470.693657" y="18.72876" style="fill: #2ca02c; stroke: #2ca02c"/>
    </g>
   </g>
   <g id="line2d_19">
    <path d="M 59.225888 191.098625 
L 104.944529 223.068702 
L 150.66317 206.35486 
L 196.381811 233.096853 
L 242.100452 203.991895 
L 287.819093 220.503117 
L 333.537734 226.034541 
L 379.256375 220.520644 
L 424.975016 215.124918 
L 470.693657 41.412918 
" clip-path="url(#p52643b55da)" style="fill: none; stroke: #d62728; stroke-width: 1.2; stroke-linecap: square"/>
    <defs>
     <path id="m92dcabe920" d="M 0 1.5 
C 0.397805 1.5 0.77937 1.341951 1.06066 1.06066 
C 1.341951 0.77937 1.5 0.397805 1.5 0 
C 1.5 -0.397805 1.341951 -0.77937 1.06066 -1.06066 
C 0.77937 -1.341951 0.397805 -1.5 0 -1.5 
C -0.397805 -1.5 -0.77937 -1.341951 -1.06066 -1.06066 
C -1.341951 -0.77937 -1.5 -0.397805 -1.5 0 
C -1.5 0.397805 -1.341951 0.77937 -1.06066 1.06066 
C -0.77937 1.341951 -0.397805 1.5 0 1.5 
z
" style="stroke: #d62728"/>
    </defs>
    <g clip-path="url(#p52643b55da)">
     <use xlink:href="#m92dcabe920" x="59.225888" y="191.098625" style="fill: #d62728; stroke: #d62728"/>
     <use xlink:href="#m92dcabe920" x="104.944529" y="223.068702" style="fill: #d62728; stroke: #d62728"/>
     <use xlink:href="#m92dcabe920" x="150.66317" y="206.35486" style="fill: #d62728; stroke: #d62728"/>
     <use xlink:href="#m92dcabe920" x="196.381811" y="233.096853" style="fill: #d62728; stroke: #d62728"/>
     <use xlink:href="#m92dcabe920" x="242.100452" y="203.991895" style="fill: #d62728; stroke: #d62728"/>
     <use xlink:href="#m92dcabe920" x="287.819093" y="220.503117" style="fill: #d62728; stroke: #d62728"/>
     <use xlink:href="#m92dcabe920" x="333.537734" y="226.034541" style="fill: #d62728; stroke: #d62728"/>
     <use xlink:href="#m92dcabe920" x="379.256375" y="220.520644" style="fill: #d62728; stroke: #d62728"/>
     <use xlink:href="#m92dcabe920" x="424.975016" y="215.124918" style="fill: #d62728; stroke: #d62728"/>
     <use xlink:href="#m92dcabe920" x="470.693657" y="41.412918" style="fill: #d62728; stroke: #d62728"/>
    </g>
   </g>
   <g id="line2d_20">
    <path d="M 59.225888 222.464822 
L 104.944529 218.731321 
L 150.66317 222.902315 
L 196.381811 208.798603 
L 242.100452 214.096395 
L 287.819093 212.935221 
L 333.537734 214.53201 
L 379.256375 204.539116 
L 424.975016 210.221883 
L 470.693657 115.267361 
" clip-path="url(#p52643b55da)" style="fill: none; stroke: #9467bd; stroke-width: 1.2; stroke-linecap: square"/>
    <defs>
     <path id="m931860495e" d="M 0 1.5 
C 0.397805 1.5 0.77937 1.341951 1.06066 1.06066 
C 1.341951 0.77937 1.5 0.397805 1.5 0 
C 1.5 -0.397805 1.341951 -0.77937 1.06066 -1.06066 
C 0.77937 -1.341951 0.397805 -1.5 0 -1.5 
C -0.397805 -1.5 -0.77937 -1.341951 -1.06066 -1.06066 
C -1.341951 -0.77937 -1.5 -0.397805 -1.5 0 
C -1.5 0.397805 -1.341951 0.77937 -1.06066 1.06066 
C -0.77937 1.341951 -0.397805 1.5 0 1.5 
z
" style="stroke: #9467bd"/>
    </defs>
    <g clip-path="url(#p52643b55da)">
     <use xlink:href="#m931860495e" x="59.225888" y="222.464822" style="fill: #9467bd; stroke: #9467bd"/>
     <use xlink:href="#m931860495e" x="104.944529" y="218.731321" style="fill: #9467bd; stroke: #9467bd"/>
     <use xlink:href="#m931860495e" x="150.66317" y="222.902315" style="fill: #9467bd; stroke: #9467bd"/>
     <use xlink:href="#m931860495e" x="196.381811" y="208.798603" style="fill: #9467bd; stroke: #9467bd"/>
     <use xlink:href="#m931860495e" x="242.100452" y="214.096395" style="fill: #9467bd; stroke: #9467bd"/>
     <use xlink:href="#m931860495e" x="287.819093" y="212.935221" style="fill: #9467bd; stroke: #9467bd"/>
     <use xlink:href="#m931860495e" x="333.537734" y="214.53201" style="fill: #9467bd; stroke: #9467bd"/>
     <use xlink:href="#m931860495e" x="379.256375" y="204.539116" style="fill: #9467bd; stroke: #9467bd"/>
     <use xlink:href="#m931860495e" x="424.975016" y="210.221883" style="fill: #9467bd; stroke: #9467bd"/>
     <use xlink:href="#m931860495e" x="470.693657" y="115.267361" style="fill: #9467bd; stroke: #9467bd"/>
    </g>
   </g>
   <g id="patch_4">
    <path d="M 38.6525 260.832727 
L 38.6525 7.2 
" style="fill: none; stroke: #000000; stroke-width: 0.8; stroke-linejoin: miter; stroke-linecap: square"/>
   </g>
   <g id="patch_5">
    <path d="M 491.267045 260.832727 
L 491.267045 7.2 
" style="fill: none; stroke: #000000; stroke-width: 0.8; stroke-linejoin: miter; stroke-linecap: square"/>
   </g>
   <g id="patch_6">
    <path d="M 38.6525 260.832727 
L 491.267045 260.832727 
" style="fill: none; stroke: #000000; stroke-width: 0.8; stroke-linejoin: miter; stroke-linecap: square"/>
   </g>
   <g id="patch_7">
    <path d="M 38.6525 7.2 
L 491.267045 7.2 
" style="fill: none; stroke: #000000; stroke-width: 0.8; stroke-linejoin: miter; stroke-linecap: square"/>
   </g>
   <g id="legend_1">
    <g id="patch_8">
     <path d="M 43.5525 43.624063 
L 243.508594 43.624063 
Q 244.908594 43.624063 244.908594 42.224063 
L 244.908594 12.1 
Q 244.908594 10.7 243.508594 10.7 
L 43.5525 10.7 
Q 42.1525 10.7 42.1525 12.1 
L 42.1525 42.224063 
Q 42.1525 43.624063 43.5525 43.624063 
z
" style="fill: #ffffff; opacity: 0.8; stroke: #cccccc; stroke-linejoin: miter"/>
    </g>
    <g id="patch_9">
     <path d="M 44.9525 18.818906 
L 58.9525 18.818906 
L 58.9525 13.918906 
L 44.9525 13.918906 
z
" style="fill: #ebebeb; stroke: #ebebeb; stroke-linejoin: miter"/>
    </g>
    <g id="text_18">
     <!-- 60°–120° (clinical mid-range) -->
     <g transform="translate(64.5525 18.818906) scale(0.07 -0.07)">
      <defs>
       <path id="DejaVuSans-2013" d="M 313 1978 
L 2888 1978 
L 2888 1528 
L 313 1528 
L 313 1978 
z
" transform="scale(0.015625)"/>
       <path id="DejaVuSans-63" d="M 3122 3366 
L 3122 2828 
Q 2878 2963 2633 3030 
Q 2388 3097 2138 3097 
Q 1578 3097 1268 2742 
Q 959 2388 959 1747 
Q 959 1106 1268 751 
Q 1578 397 2138 397 
Q 2388 397 2633 464 
Q 2878 531 3122 666 
L 3122 134 
Q 2881 22 2623 -34 
Q 2366 -91 2075 -91 
Q 1284 -91 818 406 
Q 353 903 353 1747 
Q 353 2603 823 3093 
Q 1294 3584 2113 3584 
Q 2378 3584 2631 3529 
Q 2884 3475 3122 3366 
z
" transform="scale(0.015625)"/>
       <path id="DejaVuSans-69" d="M 603 3500 
L 1178 3500 
L 1178 0 
L 603 0 
L 603 3500 
z
M 603 4863 
L 1178 4863 
L 1178 4134 
L 603 4134 
L 603 4863 
z
" transform="scale(0.015625)"/>
       <path id="DejaVuSans-2d" d="M 313 2009 
L 1997 2009 
L 1997 1497 
L 313 1497 
L 313 2009 
z
" transform="scale(0.015625)"/>
      </defs>
      <use xlink:href="#DejaVuSans-36"/>
      <use xlink:href="#DejaVuSans-30" transform="translate(63.623047 0)"/>
      <use xlink:href="#DejaVuSans-b0" transform="translate(127.246094 0)"/>
      <use xlink:href="#DejaVuSans-2013" transform="translate(177.246094 0)"/>
      <use xlink:href="#DejaVuSans-31" transform="translate(227.246094 0)"/>
      <use xlink:href="#DejaVuSans-32" transform="translate(290.869141 0)"/>
      <use xlink:href="#DejaVuSans-30" transform="translate(354.492188 0)"/>
      <use xlink:href="#DejaVuSans-b0" transform="translate(418.115234 0)"/>
      <use xlink:href="#DejaVuSans-20" transform="translate(468.115234 0)"/>
      <use xlink:href="#DejaVuSans-28" transform="translate(499.902344 0)"/>
      <use xlink:href="#DejaVuSans-63" transform="translate(538.916016 0)"/>
      <use xlink:href="#DejaVuSans-6c" transform="translate(593.896484 0)"/>
      <use xlink:href="#DejaVuSans-69" transform="translate(621.679688 0)"/>
      <use xlink:href="#DejaVuSans-6e" transform="translate(649.462891 0)"/>
      <use xlink:href="#DejaVuSans-69" transform="translate(712.841797 0)"/>
      <use xlink:href="#DejaVuSans-63" transform="translate(740.625 0)"/>
      <use xlink:href="#DejaVuSans-61" transform="translate(795.605469 0)"/>
      <use xlink:href="#DejaVuSans-6c" transform="translate(856.884766 0)"/>
      <use xlink:href="#DejaVuSans-20" transform="translate(884.667969 0)"/>
      <use xlink:href="#DejaVuSans-6d" transform="translate(916.455078 0)"/>
      <use xlink:href="#DejaVuSans-69" transform="translate(1013.867188 0)"/>
      <use xlink:href="#DejaVuSans-64" transform="translate(1041.650391 0)"/>
      <use xlink:href="#DejaVuSans-2d" transform="translate(1105.126953 0)"/>
      <use xlink:href="#DejaVuSans-72" transform="translate(1141.210938 0)"/>
      <use xlink:href="#DejaVuSans-61" transform="translate(1182.324219 0)"/>
      <use xlink:href="#DejaVuSans-6e" transform="translate(1243.603516 0)"/>
      <use xlink:href="#DejaVuSans-67" transform="translate(1306.982422 0)"/>
      <use xlink:href="#DejaVuSans-65" transform="translate(1370.458984 0)"/>
      <use xlink:href="#DejaVuSans-29" transform="translate(1431.982422 0)"/>
     </g>
    </g>
    <g id="line2d_21">
     <path d="M 44.9525 26.643594 
L 51.9525 26.643594 
L 58.9525 26.643594 
" style="fill: none; stroke: #1f77b4; stroke-width: 1.2; stroke-linecap: square"/>
     <g>
      <use xlink:href="#m35fdba2503" x="51.9525" y="26.643594" style="fill: #1f77b4; stroke: #1f77b4"/>
     </g>
    </g>
    <g id="text_19">
     <!-- densenet201 -->
     <g transform="translate(64.5525 29.093594) scale(0.07 -0.07)">
      <defs>
       <path id="DejaVuSans-74" d="M 1172 4494 
L 1172 3500 
L 2356 3500 
L 2356 3053 
L 1172 3053 
L 1172 1153 
Q 1172 725 1289 603 
Q 1406 481 1766 481 
L 2356 481 
L 2356 0 
L 1766 0 
Q 1100 0 847 248 
Q 594 497 594 1153 
L 594 3053 
L 172 3053 
L 172 3500 
L 594 3500 
L 594 4494 
L 1172 4494 
z
" transform="scale(0.015625)"/>
      </defs>
      <use xlink:href="#DejaVuSans-64"/>
      <use xlink:href="#DejaVuSans-65" transform="translate(63.476562 0)"/>
      <use xlink:href="#DejaVuSans-6e" transform="translate(125 0)"/>
      <use xlink:href="#DejaVuSans-73" transform="translate(188.378906 0)"/>
      <use xlink:href="#DejaVuSans-65" transform="translate(240.478516 0)"/>
      <use xlink:href="#DejaVuSans-6e" transform="translate(302.001953 0)"/>
      <use xlink:href="#DejaVuSans-65" transform="translate(365.380859 0)"/>
      <use xlink:href="#DejaVuSans-74" transform="translate(426.904297 0)"/>
      <use xlink:href="#DejaVuSans-32" transform="translate(466.113281 0)"/>
      <use xlink:href="#DejaVuSans-30" transform="translate(529.736328 0)"/>
      <use xlink:href="#DejaVuSans-31" transform="translate(593.359375 0)"/>
     </g>
    </g>
    <g id="line2d_22">
     <path d="M 44.9525 36.918281 
L 51.9525 36.918281 
L 58.9525 36.918281 
" style="fill: none; stroke: #ff7f0e; stroke-width: 1.2; stroke-linecap: square"/>
     <g>
      <use xlink:href="#m38089bc768" x="51.9525" y="36.918281" style="fill: #ff7f0e; stroke: #ff7f0e"/>
     </g>
    </g>
    <g id="text_20">
     <!-- resnet50 -->
     <g transform="translate(64.5525 39.368281) scale(0.07 -0.07)">
      <use xlink:href="#DejaVuSans-72"/>
      <use xlink:href="#DejaVuSans-65" transform="translate(38.863281 0)"/>
      <use xlink:href="#DejaVuSans-73" transform="translate(100.386719 0)"/>
      <use xlink:href="#DejaVuSans-6e" transform="translate(152.486328 0)"/>
      <use xlink:href="#DejaVuSans-65" transform="translate(215.865234 0)"/>
      <use xlink:href="#DejaVuSans-74" transform="translate(277.388672 0)"/>
      <use xlink:href="#DejaVuSans-35" transform="translate(316.597656 0)"/>
      <use xlink:href="#DejaVuSans-30" transform="translate(380.220703 0)"/>
     </g>
    </g>
    <g id="line2d_23">
     <path d="M 181.5225 16.368906 
L 188.5225 16.368906 
L 195.5225 16.368906 
" style="fill: none; stroke: #2ca02c; stroke-width: 1.2; stroke-linecap: square"/>
     <g>
      <use xlink:href="#m2a5debc972" x="188.5225" y="16.368906" style="fill: #2ca02c; stroke: #2ca02c"/>
     </g>
    </g>
    <g id="text_21">
     <!-- vgg19 -->
     <g transform="translate(201.1225 18.818906) scale(0.07 -0.07)">
      <defs>
       <path id="DejaVuSans-39" d="M 703 97 
L 703 672 
Q 941 559 1184 500 
Q 1428 441 1663 441 
Q 2288 441 2617 861 
Q 2947 1281 2994 2138 
Q 2813 1869 2534 1725 
Q 2256 1581 1919 1581 
Q 1219 1581 811 2004 
Q 403 2428 403 3163 
Q 403 3881 828 4315 
Q 1253 4750 1959 4750 
Q 2769 4750 3195 4129 
Q 3622 3509 3622 2328 
Q 3622 1225 3098 567 
Q 2575 -91 1691 -91 
Q 1453 -91 1209 -44 
Q 966 3 703 97 
z
M 1959 2075 
Q 2384 2075 2632 2365 
Q 2881 2656 2881 3163 
Q 2881 3666 2632 3958 
Q 2384 4250 1959 4250 
Q 1534 4250 1286 3958 
Q 1038 3666 1038 3163 
Q 1038 2656 1286 2365 
Q 1534 2075 1959 2075 
z
" transform="scale(0.015625)"/>
      </defs>
      <use xlink:href="#DejaVuSans-76"/>
      <use xlink:href="#DejaVuSans-67" transform="translate(59.179688 0)"/>
      <use xlink:href="#DejaVuSans-67" transform="translate(122.65625 0)"/>
      <use xlink:href="#DejaVuSans-31" transform="translate(186.132812 0)"/>
      <use xlink:href="#DejaVuSans-39" transform="translate(249.755859 0)"/>
     </g>
    </g>
    <g id="line2d_24">
     <path d="M 181.5225 26.643594 
L 188.5225 26.643594 
L 195.5225 26.643594 
" style="fill: none; stroke: #d62728; stroke-width: 1.2; stroke-linecap: square"/>
     <g>
      <use xlink:href="#m92dcabe920" x="188.5225" y="26.643594" style="fill: #d62728; stroke: #d62728"/>
     </g>
    </g>
    <g id="text_22">
     <!-- xception -->
     <g transform="translate(201.1225 29.093594) scale(0.07 -0.07)">
      <defs>
       <path id="DejaVuSans-78" d="M 3513 3500 
L 2247 1797 
L 3578 0 
L 2900 0 
L 1881 1375 
L 863 0 
L 184 0 
L 1544 1831 
L 300 3500 
L 978 3500 
L 1906 2253 
L 2834 3500 
L 3513 3500 
z
" transform="scale(0.015625)"/>
      </defs>
      <use xlink:href="#DejaVuSans-78"/>
      <use xlink:href="#DejaVuSans-63" transform="translate(57.429688 0)"/>
      <use xlink:href="#DejaVuSans-65" transform="translate(112.410156 0)"/>
      <use xlink:href="#DejaVuSans-70" transform="translate(173.933594 0)"/>
      <use xlink:href="#DejaVuSans-74" transform="translate(237.410156 0)"/>
      <use xlink:href="#DejaVuSans-69" transform="translate(276.619141 0)"/>
      <use xlink:href="#DejaVuSans-6f" transform="translate(304.402344 0)"/>
      <use xlink:href="#DejaVuSans-6e" transform="translate(365.583984 0)"/>
     </g>
    </g>
    <g id="line2d_25">
     <path d="M 181.5225 36.918281 
L 188.5225 36.918281 
L 195.5225 36.918281 
" style="fill: none; stroke: #9467bd; stroke-width: 1.2; stroke-linecap: square"/>
     <g>
      <use xlink:href="#m931860495e" x="188.5225" y="36.918281" style="fill: #9467bd; stroke: #9467bd"/>
     </g>
    </g>
    <g id="text_23">
     <!-- inceptionv3 -->
     <g transform="translate(201.1225 39.368281) scale(0.07 -0.07)">
      <use xlink:href="#DejaVuSans-69"/>
      <use xlink:href="#DejaVuSans-6e" transform="translate(27.783203 0)"/>
      <use xlink:href="#DejaVuSans-63" transform="translate(91.162109 0)"/>
      <use xlink:href="#DejaVuSans-65" transform="translate(146.142578 0)"/>
      <use xlink:href="#DejaVuSans-70" transform="translate(207.666016 0)"/>
      <use xlink:href="#DejaVuSans-74" transform="translate(271.142578 0)"/>
      <use xlink:href="#DejaVuSans-69" transform="translate(310.351562 0)"/>
      <use xlink:href="#DejaVuSans-6f" transform="translate(338.134766 0)"/>
      <use xlink:href="#DejaVuSans-6e" transform="translate(399.316406 0)"/>
      <use xlink:href="#DejaVuSans-76" transform="translate(462.695312 0)"/>
      <use xlink:href="#DejaVuSans-33" transform="translate(521.875 0)"/>
     </g>
    </g>
   </g>
  </g>
 </g>
 <defs>
  <clipPath id="p52643b55da">
   <rect x="38.6525" y="7.2" width="452.614545" height="253.632727"/>
  </clipPath>
 </defs>
</svg>
